<svg xmlns="http://www.w3.org/2000/svg" viewBox="0 0 334.08 88.18"><defs><style>.cls-1{fill:none;stroke:#3e7cc0;stroke-miterlimit:10;stroke-width:6px;}.cls-2{fill:#fff;}.cls-3{fill:#3e7cc0;}</style></defs><g id="Layer_2" data-name="Layer 2"><g id="Layer_1-2" data-name="Layer 1"><rect class="cls-1" x="3" y="3" width="328.08" height="78.96" rx="11.37"/><path class="cls-2" d="M166.82,86.36a5.91,5.91,0,0,1-1.3-.13c-2.1-.49-3.61-1.34-3.35-4.52l2.15.18V78.58l4.1.38-.1,1.12c2.39-.85,6.41-3.48,8-7.46,2-5,15.48-35.53,16.06-36.83l5.49,2.43c-.14.32-14.05,31.73-16,36.6C179,82,171.41,86.36,166.82,86.36Z"/><path class="cls-2" d="M168.63,88.18a6,6,0,0,1-1.3-.14c-2.1-.49-3.6-1.34-3.35-4.51l2.15.17V80.4l4.1.37-.09,1.12c2.38-.85,6.4-3.48,8-7.46,1.95-5,15.48-35.52,16-36.82L199.65,40c-.14.31-14.05,31.72-16,36.59C180.85,83.84,173.22,88.18,168.63,88.18Z"/><path class="cls-3" d="M162.41,84.93h-9.32V79h9.32c4.23,0,9.45-1.7,11.56-6.34,2.18-4.79,15.85-36.35,16-36.67L194.73,38c-.57,1.3-13.83,31.92-16,36.76C175.42,82,167.88,84.93,162.41,84.93Z"/><path class="cls-3" d="M29.76,60a18.06,18.06,0,0,1-6.64-3.39L25.62,51a19.79,19.79,0,0,0,5.86,3.09,21.29,21.29,0,0,0,7,1.19q4.34,0,6.47-1.39a4.18,4.18,0,0,0,2.14-3.66,3.55,3.55,0,0,0-1.19-2.76,8.51,8.51,0,0,0-3-1.69q-1.83-.62-5-1.39a58.41,58.41,0,0,1-7.2-2.11A11.8,11.8,0,0,1,25.93,39a8.88,8.88,0,0,1-2-6.08A10.45,10.45,0,0,1,25.7,27,11.82,11.82,0,0,1,31,22.82a21.4,21.4,0,0,1,8.65-1.56,28,28,0,0,1,7,.89,19.11,19.11,0,0,1,5.95,2.56L50.3,30.32A22.73,22.73,0,0,0,45,28a19.9,19.9,0,0,0-5.39-.78q-4.27,0-6.36,1.45a4.45,4.45,0,0,0-2.09,3.83,3.49,3.49,0,0,0,1.2,2.73,8.45,8.45,0,0,0,3,1.66q1.83.62,5,1.39a51.73,51.73,0,0,1,7.11,2.09,12.06,12.06,0,0,1,4.75,3.3,8.73,8.73,0,0,1,2,6,10.3,10.3,0,0,1-1.75,5.83,12,12,0,0,1-5.31,4.17,21.54,21.54,0,0,1-8.67,1.56A29.79,29.79,0,0,1,29.76,60Z"/><path class="cls-3" d="M74.39,59.34a7,7,0,0,1-2.55,1.28,11.34,11.34,0,0,1-3.17.43,9,9,0,0,1-6.48-2.19,8.45,8.45,0,0,1-2.29-6.38V40.24H55.71V35.47H59.9V29.66h6v5.81h6.81v4.77H65.86v12.1a4,4,0,0,0,.9,2.83,3.42,3.42,0,0,0,2.62,1,5.23,5.23,0,0,0,3.34-1Z"/><path class="cls-3" d="M96.8,37.69c2,1.79,3,4.5,3,8.12V60.72H94.16v-3.1A7,7,0,0,1,91,60.17a12.13,12.13,0,0,1-4.88.88,12,12,0,0,1-5-1,7.73,7.73,0,0,1-3.31-2.72,6.88,6.88,0,0,1-1.17-3.93,6.72,6.72,0,0,1,2.55-5.5q2.55-2.07,8-2.07h6.57v-.38a5.22,5.22,0,0,0-1.59-4.1A6.94,6.94,0,0,0,87.49,40a13.54,13.54,0,0,0-4.22.67,10.31,10.31,0,0,0-3.5,1.85l-2.34-4.33a14.42,14.42,0,0,1,4.82-2.33,21.33,21.33,0,0,1,6-.81C92,35,94.81,35.89,96.8,37.69Zm-5.43,18a5.53,5.53,0,0,0,2.45-2.93V49.81H87.68q-5.15,0-5.15,3.38a3.05,3.05,0,0,0,1.29,2.58,5.94,5.94,0,0,0,3.57.95A7.64,7.64,0,0,0,91.37,55.69Z"/><path class="cls-3" d="M125.88,37.81q2.91,2.8,2.91,8.33V60.72h-6V46.9a7.13,7.13,0,0,0-1.57-5,5.81,5.81,0,0,0-4.48-1.69,6.9,6.9,0,0,0-5.19,2,7.9,7.9,0,0,0-1.91,5.7V60.72h-6V35.28h5.67v3.29a9.2,9.2,0,0,1,3.71-2.67,13.48,13.48,0,0,1,5-.9A10.61,10.61,0,0,1,125.88,37.81Z"/><path class="cls-3" d="M132.69,25.37h6V60.72h-6Z"/><path class="cls-3" d="M167.56,49.91h-20a7,7,0,0,0,2.74,4.45,9,9,0,0,0,5.5,1.64,9.27,9.27,0,0,0,6.91-2.76l3.19,3.67a10.77,10.77,0,0,1-4.33,3.1,16,16,0,0,1-5.91,1,15.74,15.74,0,0,1-7.38-1.66,12,12,0,0,1-4.93-4.65A13.09,13.09,0,0,1,141.65,48a13.25,13.25,0,0,1,1.69-6.69A12,12,0,0,1,148,36.66,13.72,13.72,0,0,1,154.8,35a13.29,13.29,0,0,1,6.64,1.64A11.7,11.7,0,0,1,166,41.26a14.06,14.06,0,0,1,1.64,6.88C167.66,48.56,167.63,49.14,167.56,49.91ZM150,41.45a7.08,7.08,0,0,0-2.4,4.5H162a7,7,0,0,0-2.33-4.48,7.77,7.77,0,0,0-9.7,0Z"/><path class="cls-3" d="M179.45,61.75,167.94,35.28h6.2l8,18.82,8.05-18.82h5.72L184,62.77"/><path class="cls-3" d="M214.37,21.82h7.23V54.61h20.34v6.11H214.37Z"/><path class="cls-3" d="M263.72,37.69q3,2.69,3,8.12V60.72h-5.62v-3.1A6.89,6.89,0,0,1,258,60.17a12.13,12.13,0,0,1-4.88.88,12,12,0,0,1-5-1,7.73,7.73,0,0,1-3.31-2.72,6.88,6.88,0,0,1-1.17-3.93,6.72,6.72,0,0,1,2.55-5.5c1.7-1.38,4.37-2.07,8-2.07h6.57v-.38a5.2,5.2,0,0,0-1.6-4.1A6.9,6.9,0,0,0,254.4,40a13.48,13.48,0,0,0-4.21.67,10.31,10.31,0,0,0-3.5,1.85l-2.34-4.33a14.47,14.47,0,0,1,4.81-2.33,21.45,21.45,0,0,1,6-.81C258.87,35,261.73,35.89,263.72,37.69Zm-5.43,18a5.57,5.57,0,0,0,2.45-2.93V49.81h-6.15q-5.15,0-5.14,3.38a3.05,3.05,0,0,0,1.29,2.58,5.9,5.9,0,0,0,3.57.95A7.64,7.64,0,0,0,258.29,55.69Z"/><path class="cls-3" d="M310.81,35.28l-9.39,25.44h-5.71l-6.58-17.53-6.67,17.53h-5.71l-9.34-25.44H273l6.72,18.77,7-18.77h5l6.86,18.87,6.91-18.87Z"/></g></g></svg>